{
  "accessors": [
    {
      "bufferView": 2,
      "componentType": 5126,
      "count": 4369,
      "max": [
        -1.7706589698791504,
        -3.3636019229888916,
        -4.103916168212891
      ],
      "min": [
        -2.8130600452423096,
        -4.341829776763916,
        -5.198625087738037
      ],
      "type": "VEC3"
    },
    {
      "bufferView": 2,
      "byteOffset": 52428,
      "componentType": 5126,
      "count": 4369,
      "max": [
        0.9999914169311523,
        0.9995989799499512,
        0.9994456768035889
      ],
      "min": [
        -0.9998385310173035,
        -0.9992930293083191,
        -0.9999815225601196
      ],
      "type": "VEC3"
    },
    {
      "bufferView": 1,
      "componentType": 5126,
      "count": 4369,
      "max": [
        0.9965100288391113,
        0.9978190064430237
      ],
      "min": [
        0.003092000028118491,
        0.004095999989658594
      ],
      "type": "VEC2"
    },
    {
      "bufferView": 0,
      "componentType": 5125,
      "count": 11817,
      "type": "SCALAR"
    },
    {
      "bufferView": 2,
      "byteOffset": 104856,
      "componentType": 5126,
      "count": 62,
      "max": [
        -2.3681159019470215,
        -3.575364112854004,
        -3.9227659702301025
      ],
      "min": [
        -2.593427896499634,
        -3.811244010925293,
        -4.1434478759765625
      ],
      "type": "VEC3"
    },
    {
      "bufferView": 2,
      "byteOffset": 105600,
      "componentType": 5126,
      "count": 62,
      "max": [
        0.9654860496520996,
        0.99232417345047,
        0.9997962713241577
      ],
      "min": [
        -0.4160884618759155,
        -0.574131429195404,
        -0.3609827756881714
      ],
      "type": "VEC3"
    },
    {
      "bufferView": 1,
      "byteOffset": 34952,
      "componentType": 5126,
      "count": 62,
      "max": [
        0.9977459907531738,
        0.9960039854049683
      ],
      "min": [
        0.0030690000858157873,
        0.01271199993789196
      ],
      "type": "VEC2"
    },
    {
      "bufferView": 0,
      "byteOffset": 47268,
      "componentType": 5125,
      "count": 192,
      "type": "SCALAR"
    },
    {
      "bufferView": 2,
      "byteOffset": 106344,
      "componentType": 5126,
      "count": 20018,
      "max": [
        0.4982379972934723,
        0.913565993309021,
        -3.4928650856018066
      ],
      "min": [
        -2.0797929763793945,
        -6.324317932128906,
        -5.278894901275635
      ],
      "type": "VEC3"
    },
    {
      "bufferView": 2,
      "byteOffset": 346560,
      "componentType": 5126,
      "count": 20018,
      "max": [
        0.9999998211860657,
        0.9999960064888,
        0.9999997615814209
      ],
      "min": [
        -0.9999998807907104,
        -0.9999997615814209,
        -0.9999991059303284
      ],
      "type": "VEC3"
    },
    {
      "bufferView": 1,
      "byteOffset": 35448,
      "componentType": 5126,
      "count": 20018,
      "max": [
        0.9994450211524963,
        0.9996179938316345
      ],
      "min": [
        2.9999999242136255e-05,
        0.0
      ],
      "type": "VEC2"
    },
    {
      "bufferView": 0,
      "byteOffset": 48036,
      "componentType": 5125,
      "count": 40929,
      "type": "SCALAR"
    },
    {
      "bufferView": 2,
      "byteOffset": 586776,
      "componentType": 5126,
      "count": 573,
      "max": [
        -2.409670114517212,
        -3.5929110050201416,
        -3.958683967590332
      ],
      "min": [
        -2.5846920013427734,
        -3.8118419647216797,
        -4.296934127807617
      ],
      "type": "VEC3"
    },
    {
      "bufferView": 2,
      "byteOffset": 593652,
      "componentType": 5126,
      "count": 573,
      "max": [
        0.9954272508621216,
        0.99910968542099,
        0.9993764162063599
      ],
      "min": [
        -0.9996302127838135,
        -0.999553382396698,
        -0.999738872051239
      ],
      "type": "VEC3"
    },
    {
      "bufferView": 1,
      "byteOffset": 195592,
      "componentType": 5126,
      "count": 573,
      "max": [
        0.9974939823150635,
        0.9974600076675415
      ],
      "min": [
        0.0025130000431090593,
        0.06806699931621552
      ],
      "type": "VEC2"
    },
    {
      "bufferView": 0,
      "byteOffset": 211752,
      "componentType": 5125,
      "count": 2436,
      "type": "SCALAR"
    },
    {
      "bufferView": 2,
      "byteOffset": 600528,
      "componentType": 5126,
      "count": 8394,
      "max": [
        6.253821849822998,
        9.606064796447754,
        5.32830810546875
      ],
      "min": [
        -6.21967887878418,
        -9.030527114868164,
        -5.978109836578369
      ],
      "type": "VEC3"
    },
    {
      "bufferView": 2,
      "byteOffset": 701256,
      "componentType": 5126,
      "count": 8394,
      "max": [
        0.9999997615814209,
        0.9998722076416016,
        0.9999951720237732
      ],
      "min": [
        -0.9999997615814209,
        -0.9998952746391296,
        -0.9999696612358093
      ],
      "type": "VEC3"
    },
    {
      "bufferView": 1,
      "byteOffset": 200176,
      "componentType": 5126,
      "count": 8394,
      "max": [
        0.9962159991264343,
        0.9965819716453552
      ],
      "min": [
        0.003907000180333853,
        0.0019529999699443579
      ],
      "type": "VEC2"
    },
    {
      "bufferView": 0,
      "byteOffset": 221496,
      "componentType": 5125,
      "count": 16572,
      "type": "SCALAR"
    },
    {
      "bufferView": 2,
      "byteOffset": 801984,
      "componentType": 5126,
      "count": 20003,
      "max": [
        1.3052589893341064,
        0.9355639815330505,
        2.412766933441162
      ],
      "min": [
        -1.2714719772338867,
        -6.305593013763428,
        0.6210479736328125
      ],
      "type": "VEC3"
    },
    {
      "bufferView": 2,
      "byteOffset": 1042020,
      "componentType": 5126,
      "count": 20003,
      "max": [
        0.9999999403953552,
        0.9999982118606567,
        0.9999998211860657
      ],
      "min": [
        -0.9999999403953552,
        -0.9999980926513672,
        -0.9999999403953552
      ],
      "type": "VEC3"
    },
    {
      "bufferView": 1,
      "byteOffset": 267328,
      "componentType": 5126,
      "count": 20003,
      "max": [
        0.9994450211524963,
        0.9996179938316345
      ],
      "min": [
        2.9999999242136255e-05,
        0.0
      ],
      "type": "VEC2"
    },
    {
      "bufferView": 0,
      "byteOffset": 287784,
      "componentType": 5125,
      "count": 40929,
      "type": "SCALAR"
    },
    {
      "bufferView": 2,
      "byteOffset": 1282056,
      "componentType": 5126,
      "count": 7266,
      "max": [
        2.273530960083008,
        8.749971389770508,
        4.160521984100342
      ],
      "min": [
        -2.2242538928985596,
        -8.626161575317383,
        0.13321499526500702
      ],
      "type": "VEC3"
    },
    {
      "bufferView": 2,
      "byteOffset": 1369248,
      "componentType": 5126,
      "count": 7266,
      "max": [
        0.9999997615814209,
        0.9999949336051941,
        0.9999998807907104
      ],
      "min": [
        -0.9999997615814209,
        -0.9999949336051941,
        -1.0
      ],
      "type": "VEC3"
    },
    {
      "bufferView": 1,
      "byteOffset": 427352,
      "componentType": 5126,
      "count": 7266,
      "max": [
        0.9965819716453552,
        0.9975619912147522
      ],
      "min": [
        0.004395000170916319,
        0.0019529999699443579
      ],
      "type": "VEC2"
    },
    {
      "bufferView": 0,
      "byteOffset": 451500,
      "componentType": 5125,
      "count": 18558,
      "type": "SCALAR"
    },
    {
      "bufferView": 2,
      "byteOffset": 1456440,
      "componentType": 5126,
      "count": 5979,
      "max": [
        1.2700920104980469,
        8.672985076904297,
        2.412766933441162
      ],
      "min": [
        -2.3216209411621094,
        -8.646221160888672,
        -5.510752201080322
      ],
      "type": "VEC3"
    },
    {
      "bufferView": 2,
      "byteOffset": 1528188,
      "componentType": 5126,
      "count": 5979,
      "max": [
        0.9999997615814209,
        0.9999877214431763,
        0.9999999403953552
      ],
      "min": [
        -0.9999997615814209,
        -0.9999876618385315,
        -0.9999987483024597
      ],
      "type": "VEC3"
    },
    {
      "bufferView": 1,
      "byteOffset": 485480,
      "componentType": 5126,
      "count": 5979,
      "max": [
        0.9965819716453552,
        0.9975619912147522
      ],
      "min": [
        0.004395000170916319,
        0.0034179999493062496
      ],
      "type": "VEC2"
    },
    {
      "bufferView": 0,
      "byteOffset": 525732,
      "componentType": 5125,
      "count": 15888,
      "type": "SCALAR"
    },
    {
      "bufferView": 2,
      "byteOffset": 1599936,
      "componentType": 5126,
      "count": 4411,
      "max": [
        -2.0501010417938232,
        -3.4561870098114014,
        -4.161559104919434
      ],
      "min": [
        -2.836414098739624,
        -5.083740234375,
        -5.138373851776123
      ],
      "type": "VEC3"
    },
    {
      "bufferView": 2,
      "byteOffset": 1652868,
      "componentType": 5126,
      "count": 4411,
      "max": [
        0.9993219971656799,
        0.9986259937286377,
        0.9999601244926453
      ],
      "min": [
        -0.999411940574646,
        -0.9992693066596985,
        -0.9999095797538757
      ],
      "type": "VEC3"
    },
    {
      "bufferView": 1,
      "byteOffset": 533312,
      "componentType": 5126,
      "count": 4411,
      "max": [
        0.9985629916191101,
        0.9991809725761414
      ],
      "min": [
        0.0006859999848529696,
        0.0011820000363513827
      ],
      "type": "VEC2"
    },
    {
      "bufferView": 0,
      "byteOffset": 589284,
      "componentType": 5125,
      "count": 10071,
      "type": "SCALAR"
    },
    {
      "bufferView": 2,
      "byteOffset": 1705800,
      "componentType": 5126,
      "count": 2663,
      "max": [
        -2.3432259559631348,
        -3.5756590366363525,
        -3.923336982727051
      ],
      "min": [
        -2.6491100788116455,
        -3.892335891723633,
        -4.233817100524902
      ],
      "type": "VEC3"
    },
    {
      "bufferView": 2,
      "byteOffset": 1737756,
      "componentType": 5126,
      "count": 2663,
      "max": [
        0.9996662139892578,
        0.9999629855155945,
        0.9997951984405518
      ],
      "min": [
        -0.9994093179702759,
        -0.9987118244171143,
        -0.9999902844429016
      ],
      "type": "VEC3"
    },
    {
      "bufferView": 1,
      "byteOffset": 568600,
      "componentType": 5126,
      "count": 2663,
      "max": [
        0.9956390261650085,
        0.9981650114059448
      ],
      "min": [
        0.003114999970421195,
        0.003063000040128827
      ],
      "type": "VEC2"
    },
    {
      "bufferView": 0,
      "byteOffset": 629568,
      "componentType": 5125,
      "count": 7626,
      "type": "SCALAR"
    },
    {
      "bufferView": 2,
      "byteOffset": 1769712,
      "componentType": 5126,
      "count": 64,
      "max": [
        7.349297046661377,
        9.608184814453125,
        -0.5291020274162292
      ],
      "min": [
        -8.931670188903809,
        -10.267070770263672,
        -3.7054131031036377
      ],
      "type": "VEC3"
    },
    {
      "bufferView": 2,
      "byteOffset": 1770480,
      "componentType": 5126,
      "count": 64,
      "max": [
        0.9397841691970825,
        0.12163161486387253,
        0.9985970258712769
      ],
      "min": [
        -0.9397841691970825,
        -0.12266606837511063,
        -0.9986260533332825
      ],
      "type": "VEC3"
    },
    {
      "bufferView": 1,
      "byteOffset": 589904,
      "componentType": 5126,
      "count": 64,
      "max": [
        0.9884030222892761,
        0.9921879768371582
      ],
      "min": [
        0.008545000106096268,
        0.007813000120222569
      ],
      "type": "VEC2"
    },
    {
      "bufferView": 0,
      "byteOffset": 660072,
      "componentType": 5125,
      "count": 96,
      "type": "SCALAR"
    }
  ],
  "asset": {
    "extras": {
      "author": "3D only (https://sketchfab.com/ateamodels3d)",
      "license": "CC-BY-4.0 (http://creativecommons.org/licenses/by/4.0/)",
      "source": "https://sketchfab.com/3d-models/mh-60-black-hawk-9ae7287c26d0415f8ff7436b524b1875",
      "title": "MH-60 BLACK HAWK"
    },
    "generator": "Sketchfab-11.94.0",
    "version": "2.0"
  },
  "bufferViews": [
    {
      "buffer": 0,
      "byteLength": 660456,
      "name": "floatBufferViews",
      "target": 34963
    },
    {
      "buffer": 0,
      "byteLength": 590416,
      "byteOffset": 660456,
      "byteStride": 8,
      "name": "floatBufferViews",
      "target": 34962
    },
    {
      "buffer": 0,
      "byteLength": 1771248,
      "byteOffset": 1250872,
      "byteStride": 12,
      "name": "floatBufferViews",
      "target": 34962
    }
  ],
  "buffers": [
    {
      "byteLength": 3022120,
      "uri": "scene.bin"
    }
  ],
  "images": [
    {
      "uri": "textures/0e13d6de_dds_baseColor.png"
    },
    {
      "uri": "textures/0e13d6de_dds_emissive.png"
    },
    {
      "uri": "textures/18741760_dds_baseColor.png"
    },
    {
      "uri": "textures/5cb0c83e_dds_baseColor.png"
    },
    {
      "uri": "textures/5cb0c83e_dds_emissive.png"
    },
    {
      "uri": "textures/7d26d984_dds_baseColor.png"
    },
    {
      "uri": "textures/fbad802f_dds_baseColor.png"
    },
    {
      "uri": "textures/fbcac2a3_dds_baseColor.png"
    }
  ],
  "materials": [
    {
      "alphaMode": "BLEND",
      "doubleSided": true,
      "emissiveTexture": {
        "index": 1
      },
      "name": "0e13d6de_dds",
      "pbrMetallicRoughness": {
        "baseColorTexture": {
          "index": 0
        },
        "metallicFactor": 0.0,
        "roughnessFactor": 0.9822172058996108
      }
    },
    {
      "doubleSided": true,
      "emissiveTexture": {
        "index": 2
      },
      "name": "18741760_dds",
      "pbrMetallicRoughness": {
        "baseColorTexture": {
          "index": 2
        },
        "metallicFactor": 0.0,
        "roughnessFactor": 0.9822172058996108
      }
    },
    {
      "alphaMode": "BLEND",
      "doubleSided": true,
      "emissiveTexture": {
        "index": 4
      },
      "name": "5cb0c83e_dds",
      "pbrMetallicRoughness": {
        "baseColorTexture": {
          "index": 3
        },
        "metallicFactor": 0.0,
        "roughnessFactor": 0.9822172058996108
      }
    },
    {
      "doubleSided": true,
      "emissiveTexture": {
        "index": 5
      },
      "name": "7d26d984_dds",
      "pbrMetallicRoughness": {
        "baseColorTexture": {
          "index": 5
        },
        "metallicFactor": 0.0,
        "roughnessFactor": 0.9822172058996108
      }
    },
    {
      "alphaMode": "BLEND",
      "doubleSided": true,
      "name": "88fd1411_dds",
      "pbrMetallicRoughness": {
        "baseColorFactor": [
          0.7,
          0.7,
          0.7,
          0.0
        ],
        "metallicFactor": 0.0,
        "roughnessFactor": 0.9822172058996108
      }
    },
    {
      "doubleSided": true,
      "name": "d9a0e33b_dds",
      "pbrMetallicRoughness": {
        "baseColorFactor": [
          0.7,
          0.7,
          0.7,
          1.0
        ],
        "metallicFactor": 0.0,
        "roughnessFactor": 0.9822172058996108
      }
    },
    {
      "doubleSided": true,
      "emissiveTexture": {
        "index": 6
      },
      "name": "fbad802f_dds",
      "pbrMetallicRoughness": {
        "baseColorTexture": {
          "index": 6
        },
        "metallicFactor": 0.0,
        "roughnessFactor": 0.9822172058996108
      }
    },
    {
      "doubleSided": true,
      "emissiveTexture": {
        "index": 7
      },
      "name": "fbcac2a3_dds",
      "pbrMetallicRoughness": {
        "baseColorTexture": {
          "index": 7
        },
        "metallicFactor": 0.0,
        "roughnessFactor": 0.9822172058996108
      }
    }
  ],
  "meshes": [
    {
      "name": "Object_0",
      "primitives": [
        {
          "attributes": {
            "NORMAL": 1,
            "POSITION": 0,
            "TEXCOORD_0": 2
          },
          "indices": 3,
          "material": 3,
          "mode": 4
        }
      ]
    },
    {
      "name": "Object_1",
      "primitives": [
        {
          "attributes": {
            "NORMAL": 5,
            "POSITION": 4,
            "TEXCOORD_0": 6
          },
          "indices": 7,
          "material": 5,
          "mode": 4
        }
      ]
    },
    {
      "name": "Object_2",
      "primitives": [
        {
          "attributes": {
            "NORMAL": 9,
            "POSITION": 8,
            "TEXCOORD_0": 10
          },
          "indices": 11,
          "material": 6,
          "mode": 4
        }
      ]
    },
    {
      "name": "Object_3",
      "primitives": [
        {
          "attributes": {
            "NORMAL": 13,
            "POSITION": 12,
            "TEXCOORD_0": 14
          },
          "indices": 15,
          "material": 7,
          "mode": 4
        }
      ]
    },
    {
      "name": "Object_4",
      "primitives": [
        {
          "attributes": {
            "NORMAL": 17,
            "POSITION": 16,
            "TEXCOORD_0": 18
          },
          "indices": 19,
          "material": 0,
          "mode": 4
        }
      ]
    },
    {
      "name": "Object_5",
      "primitives": [
        {
          "attributes": {
            "NORMAL": 21,
            "POSITION": 20,
            "TEXCOORD_0": 22
          },
          "indices": 23,
          "material": 0,
          "mode": 4
        }
      ]
    },
    {
      "name": "Object_6",
      "primitives": [
        {
          "attributes": {
            "NORMAL": 25,
            "POSITION": 24,
            "TEXCOORD_0": 26
          },
          "indices": 27,
          "material": 0,
          "mode": 4
        }
      ]
    },
    {
      "name": "Object_7",
      "primitives": [
        {
          "attributes": {
            "NORMAL": 29,
            "POSITION": 28,
            "TEXCOORD_0": 30
          },
          "indices": 31,
          "material": 0,
          "mode": 4
        }
      ]
    },
    {
      "name": "Object_8",
      "primitives": [
        {
          "attributes": {
            "NORMAL": 33,
            "POSITION": 32,
            "TEXCOORD_0": 34
          },
          "indices": 35,
          "material": 1,
          "mode": 4
        }
      ]
    },
    {
      "name": "Object_9",
      "primitives": [
        {
          "attributes": {
            "NORMAL": 37,
            "POSITION": 36,
            "TEXCOORD_0": 38
          },
          "indices": 39,
          "material": 2,
          "mode": 4
        }
      ]
    },
    {
      "name": "Object_10",
      "primitives": [
        {
          "attributes": {
            "NORMAL": 41,
            "POSITION": 40,
            "TEXCOORD_0": 42
          },
          "indices": 43,
          "material": 4,
          "mode": 4
        }
      ]
    }
  ],
  "nodes": [
    {
      "children": [
        1
      ],
      "matrix": [
        1.0,
        0.0,
        0.0,
        0.0,
        0.0,
        2.220446049250313e-16,
        -1.0,
        0.0,
        0.0,
        1.0,
        2.220446049250313e-16,
        0.0,
        0.0,
        0.0,
        0.0,
        1.0
      ],
      "name": "Sketchfab_model"
    },
    {
      "children": [
        2,
        3,
        4,
        5,
        6,
        7,
        8,
        9,
        10,
        11,
        12
      ],
      "name": "MH-60 BLACK HAWK.obj.cleaner.materialmerger.gles"
    },
    {
      "mesh": 0,
      "name": "Object_2"
    },
    {
      "mesh": 1,
      "name": "Object_3"
    },
    {
      "mesh": 2,
      "name": "Object_4"
    },
    {
      "mesh": 3,
      "name": "Object_5"
    },
    {
      "mesh": 4,
      "name": "Object_6"
    },
    {
      "mesh": 5,
      "name": "Object_7"
    },
    {
      "mesh": 6,
      "name": "Object_8"
    },
    {
      "mesh": 7,
      "name": "Object_9"
    },
    {
      "mesh": 8,
      "name": "Object_10"
    },
    {
      "mesh": 9,
      "name": "Object_11"
    },
    {
      "mesh": 10,
      "name": "Object_12"
    }
  ],
  "samplers": [
    {
      "magFilter": 9729,
      "minFilter": 9987,
      "wrapS": 10497,
      "wrapT": 10497
    }
  ],
  "scene": 0,
  "scenes": [
    {
      "name": "Sketchfab_Scene",
      "nodes": [
        0
      ]
    }
  ],
  "textures": [
    {
      "sampler": 0,
      "source": 0
    },
    {
      "sampler": 0,
      "source": 1
    },
    {
      "sampler": 0,
      "source": 2
    },
    {
      "sampler": 0,
      "source": 3
    },
    {
      "sampler": 0,
      "source": 4
    },
    {
      "sampler": 0,
      "source": 5
    },
    {
      "sampler": 0,
      "source": 6
    },
    {
      "sampler": 0,
      "source": 7
    }
  ]
}
